<svg width="226" height="226" viewBox="0 0 226 226" fill="none" xmlns="http://www.w3.org/2000/svg">
<g clip-path="url(#clip0_1274_391)">
<path d="M113.592 87.7376C113.782 89.5488 114.259 91.8366 114.64 93.4572C119.597 112.713 140.569 120.149 167.356 114.62V94.8871C146.098 99.2722 119.788 96.7937 113.782 72.5807H112.066C106.061 96.7937 79.7507 99.2722 58.4927 94.8871V114.62C85.2796 120.149 106.251 112.713 111.208 93.4572C111.59 91.8366 112.066 89.5488 112.257 87.7376H113.591H113.592ZM113.782 105.85C118.834 127.203 141.236 133.209 166.879 128.156C165.449 135.973 162.304 143.408 157.442 149.509C128.844 151.035 116.07 140.072 113.592 121.007H112.257C109.779 140.072 97.0049 151.035 68.4068 149.509C63.5451 143.408 60.3994 135.973 58.9695 128.156C84.6124 133.208 107.014 127.203 112.067 105.85H113.782H113.782ZM114.163 63.2388C122.266 84.1153 149.53 84.9732 167.356 81.3509V63.2388H114.163ZM111.685 63.2388H58.4929V81.3509C76.3191 84.9732 103.582 84.1153 111.685 63.2388ZM112.162 139.119C108.444 153.418 96.2421 160.853 84.8029 162.378L112.924 177.631L141.046 162.378C129.607 160.853 117.405 153.418 113.687 139.119H112.162Z" fill="#F15A22"/>
<path d="M3.62617 118.678L3.82392 124.492L0.531552 124.604L0 108.989L3.29237 108.877L3.49034 114.691L18.1525 114.192L18.2881 118.179L3.62594 118.678L3.62617 118.678ZM19.6252 95.7719L20.1782 91.7965L2.38543 89.3182L1.83263 93.2933L8.83909 94.2703L7.74751 102.121L0.736308 101.143L0.188258 105.095L17.981 107.573L18.5293 103.622L10.9841 102.569L12.0804 94.7185L19.6252 95.7719ZM4.01444 83.1398L7.88966 71.382L11.0184 72.4132L8.39206 80.3822L11.9855 81.5664L13.5966 76.6774L16.7012 77.7005L15.0898 82.5895L19.1967 83.943L21.8553 75.8762L24.9841 76.9074L21.0765 88.7632L4.01421 83.1396L4.01444 83.1398ZM29.733 66.2398C28.6563 66.9352 27.5227 67.2828 26.3322 67.2816C25.1418 67.2812 23.9635 66.9191 22.7962 66.1962L12.9941 60.1233L15.109 56.71L24.9108 62.7829C25.5091 63.1535 26.1057 63.3468 26.7014 63.3624C27.297 63.3784 27.8597 63.2274 28.3899 62.9097C28.9196 62.5921 29.3832 62.1126 29.7809 61.4705C30.1785 60.8289 30.404 60.1963 30.4571 59.573C30.51 58.9502 30.3934 58.3732 30.1064 57.8419C29.8196 57.3112 29.3847 56.8649 28.8012 56.5033L18.9994 50.4304L21.1003 47.0391L30.9023 53.1119C32.0694 53.8351 32.918 54.7294 33.4487 55.7947C33.9796 56.8608 34.1755 58.0267 34.0367 59.2928C33.8977 60.5593 33.413 61.8635 32.5817 63.2053C31.7593 64.5328 30.8097 65.5439 29.733 66.2393V66.2398ZM24.7081 42.2885L27.8073 38.9144L42.2661 42.2345L36.8217 38.0029L32.3858 33.9288L35.0845 30.9906L48.3156 43.143L45.2165 46.5172L30.7213 43.1986L36.2018 47.4287L40.6375 51.5028L37.9391 54.441L24.7081 42.2885ZM48.912 38.5769L41.6561 29.8149L39.555 27.2776L42.6274 24.7331L44.7288 27.2704L51.9847 36.0324L54.0861 38.5697L51.0134 41.1142L48.912 38.5769ZM44.8807 22.5727L48.3941 20.327L57.2108 27.4293L60.3316 30.3523L58.9889 26.2925L56.2442 15.3087L59.7139 13.0907L64.2073 31.5407L59.718 34.4102L44.8804 22.5727H44.8807ZM62.7566 11.7358L74.1144 6.8097L75.4255 9.83222L67.7277 13.1709L69.2331 16.6421L73.9556 14.5938L75.2562 17.5926L70.5337 19.6409L72.2542 23.6078L80.0465 20.2282L81.3575 23.2507L69.905 28.2178L62.7566 11.7358ZM95.367 16.1263C94.6522 15.1681 93.7416 14.3294 92.6311 13.6096C92.2116 13.3379 91.7684 13.095 91.306 12.8805C91.4204 12.7946 91.53 12.704 91.6349 12.6136C92.5404 11.8271 93.1744 10.9405 93.5367 9.95404C93.8942 8.96755 93.9561 8.00931 93.7226 7.08C93.4463 5.99813 92.9504 5.1208 92.2356 4.45365C91.5158 3.7865 90.6246 3.35755 89.5568 3.17155C88.4892 2.98103 87.3167 3.0477 86.0393 3.37179L78.6801 5.23561L83.0936 22.6518L86.9591 21.6699L85.2861 15.0589L87.2163 14.5681C87.6835 14.7301 88.1314 14.9256 88.5606 15.1448C89.6901 15.7358 90.6244 16.4698 91.3585 17.342C92.0925 18.2191 92.5976 19.1626 92.8742 20.1731L96.8636 19.1579C96.5777 18.1 96.0771 17.0891 95.367 16.1263ZM83.3558 7.45154L86.8495 6.56517C87.3119 6.44607 87.7456 6.4316 88.1508 6.51251C88.5511 6.59839 88.8896 6.7749 89.1565 7.0418C89.4282 7.30871 89.6189 7.65675 89.7286 8.09044C89.8477 8.55736 89.8382 8.99105 89.7046 9.39627C89.5665 9.80601 89.3233 10.1493 88.9705 10.4354C88.6178 10.7166 88.1746 10.9263 87.6408 11.0646L84.4759 11.8653L83.3558 7.45154ZM100.785 18.2842C99.6685 17.8315 98.8 17.1155 98.18 16.1367C97.5597 15.1579 97.232 13.9811 97.1972 12.6059L101.094 12.2626C101.123 12.9836 101.272 13.5949 101.54 14.0966C101.808 14.5986 102.185 14.9699 102.672 15.2113C103.158 15.4526 103.735 15.5439 104.401 15.4852C104.931 15.4386 105.389 15.3166 105.777 15.1184C106.164 14.9208 106.447 14.6548 106.624 14.3204C106.801 13.9861 106.871 13.6053 106.833 13.1779C106.796 12.7508 106.619 12.4089 106.304 12.1523C105.988 11.8958 105.596 11.7024 105.129 11.5711C104.66 11.4404 104.015 11.299 103.192 11.1473C101.968 10.945 100.948 10.7035 100.131 10.4223C99.3137 10.1414 98.5952 9.66227 97.976 8.9845C97.3563 8.30718 96.9931 7.36182 96.8864 6.14797C96.7915 5.07108 96.9734 4.10787 97.4327 3.25766C97.8917 2.40767 98.5936 1.72583 99.5392 1.21168C100.484 0.697983 101.615 0.382939 102.931 0.266775C104.281 0.147899 105.486 0.283047 106.545 0.671767C107.604 1.06094 108.452 1.68379 109.087 2.54079C109.722 3.398 110.11 4.43173 110.252 5.64196L106.278 5.99203C106.229 5.44511 106.072 4.98113 105.806 4.59965C105.54 4.21861 105.183 3.93543 104.737 3.75079C104.29 3.5666 103.784 3.4988 103.22 3.54852C102.742 3.59078 102.325 3.70491 101.971 3.89114C101.617 4.07736 101.355 4.3246 101.184 4.63219C101.013 4.94045 100.945 5.29075 100.98 5.68377C101.016 6.09396 101.186 6.4194 101.492 6.65918C101.797 6.89965 102.175 7.07706 102.624 7.19232C103.074 7.3078 103.691 7.42578 104.477 7.54578C105.736 7.76229 106.778 8.00637 107.603 8.27802C108.428 8.55013 109.16 9.04122 109.8 9.75109C110.439 10.4614 110.818 11.4829 110.935 12.8161C111.032 13.9102 110.846 14.8824 110.379 15.7331C109.911 16.5842 109.188 17.2719 108.209 17.7974C107.231 18.3228 106.058 18.6458 104.69 18.7662C103.203 18.8973 101.901 18.7362 100.785 18.2835V18.2842ZM113.859 14.7907L114.186 3.41902L114.281 0.125977L118.269 0.240785L118.174 3.53383L117.846 14.9055L117.751 18.1985L113.764 18.0837L113.859 14.7907ZM126.109 4.1942L120.347 3.3971L120.799 0.133661L136.275 2.27456L135.823 5.538L130.061 4.7409L128.051 19.2734L124.099 18.7267L126.11 4.1942H126.109ZM140.649 14.6225L137.818 2.57649L142.006 3.84571L143.265 9.09546L143.523 12.2394L145.433 9.75245L149.42 6.09283L153.607 7.36204L144.467 15.7799L142.361 22.726L138.543 21.5689L140.649 14.6227L140.649 14.6225ZM157.106 27.9217C156.332 26.5944 155.987 25.1453 156.07 23.5742C156.154 22.0032 156.673 20.4034 157.626 18.7737C158.579 17.1445 159.719 15.9085 161.047 15.0648C162.375 14.2216 163.811 13.8141 165.355 13.8424C166.899 13.8706 168.448 14.3396 170.004 15.2492C171.559 16.1589 172.723 17.2773 173.498 18.6046C174.272 19.9322 174.613 21.379 174.522 22.9456C174.43 24.5125 173.908 26.1103 172.956 27.7396C172.003 29.369 170.865 30.6073 169.545 31.455C168.224 32.3027 166.796 32.7145 165.26 32.6905C163.723 32.6668 162.178 32.1999 160.622 31.2902C159.052 30.372 157.88 29.2495 157.106 27.9217ZM164.815 29.0913C165.672 29.0361 166.497 28.7136 167.29 28.1233C168.082 27.5332 168.786 26.7126 169.401 25.6608C170.016 24.6092 170.384 23.5972 170.506 22.6245C170.627 21.652 170.504 20.7747 170.136 19.9934C169.768 19.2117 169.17 18.5784 168.34 18.0932C167.496 17.5994 166.642 17.3781 165.777 17.429C164.912 17.4801 164.084 17.8005 163.292 18.3904C162.499 18.9807 161.795 19.8015 161.18 20.8529C160.565 21.9047 160.201 22.9185 160.087 23.8955C159.972 24.8723 160.103 25.7537 160.478 26.5397C160.853 27.3258 161.456 27.961 162.285 28.4463C163.115 28.9313 163.958 29.1464 164.815 29.091V29.0913ZM181.508 23.1791L190.939 31.1596L188.811 33.6745L182.426 28.2711L179.982 31.1594L183.891 34.468L181.78 36.9633L177.87 33.6547L172.949 39.4703L169.903 36.8932L181.508 23.1791ZM198.274 44.2658L194.708 39.6701L197.311 37.6506L206.889 49.9938L204.286 52.0133L200.72 47.4176L189.129 56.4113L186.684 53.2595L198.274 44.2658ZM208.718 53.0314L214.737 63.8503L211.858 65.4519L207.779 58.1194L204.473 59.9588L206.975 64.4573L204.118 66.0463L201.616 61.5478L197.837 63.6498L201.966 71.0723L199.087 72.674L193.019 61.7652L208.718 53.0317L208.718 53.0314ZM210.075 75.6219L216.478 67.3601L217.988 71.6034L215.252 75.2L213.451 77.1251L216.055 77.455L220.448 78.5143L221.949 82.7335L211.839 80.3487L205.102 88.9756L203.6 84.7564L206.607 80.845L208.441 78.9356L205.795 78.5656L200.985 77.4089L199.501 73.2383L210.075 75.6217L210.075 75.6219ZM224.049 93.2359L205.331 89.6184L205.946 93.6649L210.255 94.4466L211.294 101.305L207.409 103.331L208.043 107.506L224.849 98.5026L224.049 93.2359ZM217.686 97.9738L214.383 99.6943L213.682 95.0711L217.347 95.7337L221.389 96.2912L217.686 97.9736V97.9738ZM208.345 111.854C208.923 110.797 209.735 110.016 210.778 109.513C211.822 109.01 213.029 108.82 214.399 108.944L214.291 112.854C213.571 112.8 212.947 112.877 212.418 113.086C211.888 113.294 211.476 113.627 211.18 114.082C210.884 114.537 210.727 115.099 210.709 115.768C210.694 116.3 210.763 116.77 210.915 117.177C211.066 117.585 211.298 117.896 211.61 118.11C211.922 118.325 212.292 118.438 212.721 118.45C213.149 118.462 213.509 118.326 213.801 118.042C214.091 117.758 214.329 117.391 214.513 116.942C214.697 116.492 214.912 115.867 215.157 115.067C215.498 113.874 215.856 112.889 216.229 112.11C216.602 111.33 217.161 110.672 217.906 110.135C218.65 109.597 219.631 109.345 220.849 109.379C221.93 109.409 222.866 109.7 223.657 110.254C224.448 110.808 225.045 111.584 225.447 112.582C225.848 113.58 226.031 114.74 225.995 116.061C225.958 117.415 225.685 118.597 225.176 119.604C224.668 120.611 223.952 121.381 223.027 121.914C222.103 122.446 221.031 122.713 219.813 122.714L219.922 118.726C220.471 118.741 220.95 118.638 221.36 118.418C221.769 118.197 222.092 117.875 222.326 117.453C222.561 117.03 222.686 116.536 222.702 115.97C222.715 115.489 222.65 115.063 222.505 114.69C222.361 114.317 222.146 114.028 221.86 113.823C221.573 113.617 221.233 113.509 220.839 113.499C220.427 113.487 220.084 113.62 219.811 113.895C219.537 114.171 219.317 114.525 219.151 114.959C218.984 115.392 218.796 115.992 218.586 116.758C218.226 117.984 217.864 118.991 217.499 119.779C217.134 120.567 216.562 121.238 215.783 121.792C215.004 122.345 213.945 122.604 212.607 122.567C211.509 122.537 210.565 122.241 209.774 121.678C208.982 121.116 208.382 120.318 207.973 119.285C207.564 118.253 207.378 117.05 207.416 115.678C207.457 114.186 207.767 112.911 208.345 111.854L208.345 111.854ZM33.1472 164.073L14.711 168.94L17.0225 172.314L21.2456 171.151L25.1588 176.881L22.5374 180.394L24.9206 183.878L36.1548 168.473L33.1472 164.073ZM29.4724 171.104L27.2418 174.087L24.6012 170.227L28.1951 169.235L32.0796 167.982L29.4724 171.104V171.104ZM39.8544 178.275L35.8886 174.02L38.2986 171.774L48.95 183.203L46.54 185.449L42.5741 181.194L31.8416 191.196L29.1217 188.277L39.8542 178.275L39.8544 178.275ZM45.5661 202.7C45.0032 201.635 44.7995 200.528 44.9555 199.38C45.111 198.231 45.6179 197.12 46.4767 196.045L49.6798 198.291C49.2375 198.862 48.9577 199.425 48.8402 199.982C48.722 200.538 48.7717 201.066 48.9884 201.563C49.2052 202.061 49.5876 202.502 50.1354 202.886C50.5709 203.191 51.0003 203.394 51.4243 203.491C51.8478 203.589 52.2352 203.568 52.5864 203.426C52.9371 203.285 53.2357 203.038 53.482 202.687C53.7283 202.336 53.8133 201.96 53.7371 201.561C53.661 201.162 53.4856 200.761 53.2122 200.359C52.9382 199.958 52.5353 199.435 52.0033 198.789C51.1971 197.846 50.5718 197.005 50.1277 196.263C49.6832 195.522 49.442 194.693 49.4045 193.776C49.3665 192.858 49.6972 191.901 50.3971 190.903C51.0177 190.018 51.7773 189.398 52.6761 189.044C53.5742 188.689 54.5505 188.619 55.605 188.834C56.6589 189.05 57.727 189.536 58.8088 190.295C59.9182 191.073 60.7533 191.952 61.3136 192.932C61.8734 193.911 62.1206 194.933 62.0553 195.998C61.9893 197.063 61.6207 198.104 60.9495 199.121L57.6833 196.831C57.9984 196.381 58.1771 195.925 58.2192 195.461C58.2608 194.999 58.1701 194.552 57.9473 194.124C57.7238 193.695 57.3809 193.318 56.9172 192.992C56.5237 192.717 56.1314 192.536 55.7409 192.45C55.3499 192.365 54.9901 192.385 54.6613 192.511C54.332 192.637 54.0542 192.861 53.8278 193.184C53.5914 193.521 53.5125 193.88 53.5918 194.26C53.6707 194.641 53.845 195.019 54.1148 195.397C54.3842 195.775 54.7808 196.263 55.3047 196.86C56.1289 197.837 56.7692 198.694 57.2255 199.433C57.6815 200.172 57.9256 201.019 57.9582 201.974C57.9902 202.93 57.6223 203.955 56.8539 205.051C56.2231 205.95 55.4552 206.575 54.5496 206.925C53.6438 207.275 52.6476 207.335 51.5605 207.108C50.4733 206.88 49.3677 206.371 48.244 205.583C47.022 204.726 46.1291 203.765 45.5666 202.7L45.5661 202.7ZM69.3379 197.09L55.7682 210.478L59.4477 212.261L62.5315 209.149L68.7802 212.175L68.2511 216.522L72.0547 218.362L74.1327 199.411L69.3377 197.09L69.3379 197.09ZM64.9816 206.675L67.6079 204.03L70.3533 201.012L69.648 205.016L69.1998 208.719L64.9816 206.675V206.675ZM79.8243 202.045L84.234 203.287L87.7981 217.687L89.1165 210.919L90.7496 205.122L94.5894 206.204L89.7184 223.496L85.3087 222.254L81.7268 207.821L80.4262 214.621L78.7933 220.419L74.9534 219.337L79.8246 202.045H79.8243ZM112.264 207.695L106.94 207.509L99.9381 225.245L104.028 225.388L105.591 221.293L112.526 221.536L113.803 225.726L118.022 225.874L112.264 207.695L112.264 207.695ZM106.835 218.038L108.165 214.559L109.456 210.688L110.429 214.635L111.515 218.2L106.835 218.038H106.835ZM118.572 207.809L123.109 207.177L132.151 218.938L130.644 212.21L129.814 206.245L133.765 205.695L136.241 223.489L131.703 224.12L122.632 212.337L124.169 219.088L124.999 225.053L121.047 225.603L118.572 207.809ZM142.055 206.596L136.535 208.432L135.495 205.306L150.32 200.374L151.359 203.5L145.84 205.336L150.472 219.257L146.686 220.516L142.055 206.596H142.055ZM162.339 213.462C160.802 213.441 159.383 212.988 158.08 212.105C156.778 211.223 155.675 209.954 154.771 208.296C153.867 206.639 153.397 205.024 153.36 203.451C153.323 201.879 153.715 200.438 154.536 199.131C155.357 197.823 156.558 196.738 158.14 195.875C159.721 195.012 161.281 194.592 162.817 194.614C164.354 194.636 165.769 195.09 167.064 195.976C168.359 196.864 169.458 198.135 170.362 199.792C171.266 201.449 171.74 203.062 171.785 204.631C171.829 206.199 171.445 207.635 170.631 208.939C169.818 210.243 168.62 211.326 167.038 212.188C165.441 213.06 163.875 213.484 162.339 213.462V213.462ZM167.319 207.462C167.714 206.7 167.864 205.827 167.767 204.843C167.67 203.86 167.33 202.834 166.747 201.764C166.163 200.695 165.487 199.857 164.716 199.251C163.946 198.645 163.131 198.298 162.272 198.21C161.412 198.121 160.561 198.307 159.717 198.767C158.859 199.235 158.228 199.853 157.826 200.62C157.423 201.387 157.27 202.262 157.367 203.245C157.463 204.228 157.803 205.255 158.386 206.324C158.97 207.394 159.65 208.229 160.428 208.831C161.206 209.433 162.028 209.776 162.895 209.861C163.762 209.945 164.617 209.757 165.461 209.297C166.304 208.837 166.924 208.225 167.319 207.462ZM167.307 190.921L170.841 188.006L184.706 193.285L179.895 188.344L176.063 183.698L179.14 181.16L190.572 195.018L187.039 197.933L173.138 192.651L177.984 197.595L181.817 202.241L178.739 204.78L167.307 190.922L167.307 190.921ZM191.847 188.778L183.508 181.039L181.094 178.798L183.808 175.874L186.222 178.115L194.561 185.853L196.975 188.095L194.261 191.019L191.847 188.778ZM201.78 181.15C200.391 181.809 198.918 182.031 197.36 181.814C195.802 181.597 194.252 180.945 192.709 179.857C191.166 178.77 190.031 177.529 189.303 176.134C188.575 174.739 188.291 173.274 188.45 171.738C188.609 170.202 189.207 168.698 190.245 167.225C191.284 165.752 192.497 164.687 193.885 164.028C195.273 163.369 196.744 163.152 198.297 163.375C199.851 163.599 201.399 164.254 202.941 165.342C204.484 166.429 205.622 167.667 206.354 169.055C207.087 170.443 207.376 171.901 207.222 173.43C207.068 174.959 206.472 176.459 205.434 177.932C204.386 179.419 203.168 180.492 201.78 181.15V181.15ZM203.598 173.567C203.616 172.709 203.364 171.86 202.843 171.02C202.322 170.181 201.564 169.41 200.568 168.708C199.573 168.006 198.595 167.553 197.637 167.35C196.678 167.146 195.794 167.195 194.984 167.495C194.173 167.795 193.492 168.338 192.938 169.123C192.375 169.923 192.082 170.756 192.059 171.621C192.036 172.487 192.286 173.34 192.807 174.179C193.328 175.019 194.086 175.789 195.081 176.491C196.077 177.193 197.057 177.642 198.021 177.839C198.984 178.035 199.873 177.98 200.688 177.673C201.503 177.366 202.187 176.82 202.741 176.034C203.295 175.249 203.58 174.427 203.598 173.567ZM210.022 149.962L216.647 146.587L213.271 139.962L206.646 143.337L210.022 149.962ZM12.6592 139.962L9.28385 146.587L15.9086 149.962L19.2839 143.337L12.6592 139.962Z" fill="#032044"/>
<path d="M185.876 203.947V205.054H188.966V212.959H190.266V205.054H193.343V203.947H185.876ZM202.226 203.947L199.535 211.516L196.833 203.947H194.695V212.959H195.931V204.886L198.842 212.959H200.154L203.063 204.848V212.959H204.3V203.947H202.226H202.226Z" fill="#032044"/>
</g>
<defs>
<clipPath id="clip0_1274_391">
<rect width="226" height="226" fill="white"/>
</clipPath>
</defs>
</svg>
